<?xml version="1.0" standalone="no"?>
<!DOCTYPE svg PUBLIC "-//W3C//DTD SVG 20010904//EN"
 "http://www.w3.org/TR/2001/REC-SVG-20010904/DTD/svg10.dtd">
<svg version="1.0" xmlns="http://www.w3.org/2000/svg"
 width="500.000000pt" height="500.000000pt" viewBox="0 0 500.000000 500.000000"
 preserveAspectRatio="xMidYMid meet">
<metadata>
Created by potrace 1.14, written by Peter Selinger 2001-2017
</metadata>
<g transform="translate(0.000000,500.000000) scale(0.100000,-0.100000)"
fill="#000000" stroke="none">
<path d="M2134 4570 c-12 -5 -30 -20 -42 -34 -69 -89 -283 -834 -366 -1276
-89 -477 -118 -898 -81 -1175 8 -60 15 -111 15 -112 0 -2 25 -3 56 -3 48 0 55
2 50 18 -33 109 -24 486 19 807 77 573 165 956 346 1502 39 117 69 222 67 234
-4 29 -37 49 -64 39z"/>
<path d="M4002 3604 c-74 -37 -173 -183 -300 -441 -105 -213 -164 -359 -292
-723 -54 -151 -113 -319 -133 -372 l-35 -98 43 0 43 0 45 123 c24 67 57 162
71 211 40 129 179 503 238 636 118 267 226 457 307 540 l54 55 10 -35 c21 -75
-6 -329 -83 -785 -37 -220 -81 -533 -96 -677 l-7 -68 52 0 c28 0 51 5 51 10 0
6 41 281 91 613 80 531 91 619 93 747 1 118 -2 154 -17 191 -30 78 -76 102
-135 73z"/>
<path d="M2580 3528 c-56 -91 -172 -597 -205 -895 -6 -55 -23 -91 -152 -325
-80 -145 -154 -280 -164 -300 l-19 -38 47 0 48 0 90 166 c50 91 96 174 103
183 11 14 12 13 8 -9 -3 -14 -8 -96 -11 -182 l-6 -158 49 0 50 0 6 118 c4 64
16 202 26 305 l19 188 99 182 c107 196 129 245 119 271 -16 42 -54 9 -126
-114 -28 -47 -51 -80 -51 -73 0 53 79 416 131 601 23 83 19 112 -17 112 -17 0
-31 -10 -44 -32z"/>
<path d="M3041 2762 c-75 -78 -191 -340 -275 -620 -25 -85 -46 -158 -46 -163
0 -5 15 -9 34 -9 l34 0 22 81 c62 232 177 517 250 623 62 91 66 65 40 -275
-11 -151 -20 -308 -18 -349 l3 -75 41 -3 41 -3 7 158 c3 87 9 257 12 378 5
200 4 223 -13 255 -15 29 -24 35 -56 38 -34 3 -44 -2 -76 -36z"/>
<path d="M1212 1778 l-2 -88 58 2 57 1 -50 6 -50 6 -6 80 -5 80 -2 -87z"/>
<path d="M2051 1830 c-7 -85 -7 -121 0 -132 13 -21 15 -6 9 82 -4 47 -8 69 -9
50z"/>
<path d="M2597 1853 c-11 -11 -8 -163 3 -163 6 0 10 29 10 68 l0 67 30 -52
c17 -29 32 -53 35 -53 3 0 18 24 35 53 l30 52 0 -67 c0 -39 4 -68 10 -68 13 0
13 157 1 164 -5 3 -23 -19 -40 -49 -17 -30 -33 -55 -35 -55 -3 0 -19 25 -36
55 -34 59 -33 58 -43 48z"/>
<path d="M3033 1825 c-6 -14 -7 -27 -2 -31 5 -3 9 -27 9 -55 0 -42 3 -49 20
-49 11 0 20 5 20 10 0 6 -6 9 -12 8 -9 -2 -14 13 -16 44 -2 38 0 47 15 51 15
4 16 5 1 6 -9 0 -18 10 -20 21 -3 18 -4 18 -15 -5z"/>
<path d="M1406 1794 c-22 -21 -20 -67 2 -87 23 -21 65 -22 82 -2 15 18 7 19
-20 3 -23 -15 -53 -2 -58 26 -3 13 6 16 47 16 55 0 59 4 35 38 -18 26 -65 30
-88 6z m72 -6 c21 -21 13 -28 -33 -28 -43 0 -45 1 -35 20 12 22 49 27 68 8z"/>
<path d="M1597 1802 c-3 -4 9 -7 26 -7 22 0 33 -5 35 -17 3 -14 -3 -18 -25
-18 -39 0 -55 -13 -51 -41 3 -21 8 -24 51 -24 l47 -1 0 39 c0 54 -15 77 -50
77 -16 0 -31 -3 -33 -8z m63 -72 c0 -23 -45 -39 -62 -22 -18 18 -1 42 32 42
23 0 30 -4 30 -20z"/>
<path d="M1760 1750 c0 -71 16 -80 22 -12 5 51 1 72 -13 72 -5 0 -9 -27 -9
-60z"/>
<path d="M1795 1801 c-3 -6 7 -9 22 -8 27 2 28 0 31 -50 2 -29 7 -53 13 -53
13 0 11 94 -3 108 -14 14 -54 16 -63 3z"/>
<path d="M1960 1794 c-20 -23 -16 -75 5 -90 23 -17 61 -18 71 -3 4 8 -1 9 -15
4 -26 -8 -61 18 -61 46 0 28 30 51 57 44 16 -4 22 -2 18 5 -10 15 -61 12 -75
-6z"/>
<path d="M2150 1750 c0 -33 4 -60 10 -60 6 0 10 20 10 45 0 35 4 47 21 55 11
7 18 14 15 17 -3 3 -12 0 -21 -7 -10 -8 -15 -9 -15 -1 0 6 -4 11 -10 11 -6 0
-10 -27 -10 -60z"/>
<path d="M2297 1792 c-37 -40 -9 -102 46 -102 29 0 57 32 57 66 0 47 -71 72
-103 36z m71 -4 c22 -22 14 -67 -13 -80 -31 -14 -55 3 -55 41 0 30 16 51 40
51 9 0 21 -5 28 -12z"/>
<path d="M2857 1802 c-3 -4 9 -7 26 -7 22 0 33 -5 35 -17 3 -14 -3 -18 -26
-18 -34 0 -55 -20 -50 -47 3 -14 14 -18 53 -19 l50 -1 -4 46 c-2 25 -8 52 -13
59 -11 13 -64 17 -71 4z m63 -71 c0 -24 -36 -37 -55 -21 -21 17 -6 40 26 40
22 0 29 -5 29 -19z"/>
<path d="M3165 1800 c-4 -7 2 -9 19 -4 26 6 56 -9 56 -27 0 -5 -15 -9 -34 -9
-40 0 -65 -24 -49 -48 13 -21 50 -27 69 -12 10 9 14 9 14 1 0 -6 4 -11 9 -11
11 0 2 91 -12 108 -12 15 -63 16 -72 2z m70 -60 c9 -15 -14 -40 -36 -40 -22 0
-33 16 -25 35 6 17 52 20 61 5z"/>
<path d="M3340 1748 c0 -32 4 -58 10 -58 6 0 10 20 10 44 0 34 5 47 23 59 22
15 22 15 -10 15 l-33 -1 0 -59z"/>
<path d="M3487 1802 c-3 -4 9 -7 26 -7 22 0 33 -5 35 -17 3 -14 -3 -18 -25
-18 -39 0 -55 -13 -51 -41 3 -21 8 -24 51 -24 l47 -1 0 39 c0 54 -15 77 -50
77 -16 0 -31 -3 -33 -8z m63 -72 c0 -23 -45 -39 -62 -22 -18 18 -1 42 32 42
23 0 30 -4 30 -20z"/>
<path d="M3684 1801 l40 -6 -30 -35 c-63 -74 -63 -70 -3 -68 43 1 47 2 17 5
-21 2 -38 7 -38 9 0 3 16 25 35 48 19 24 35 46 35 50 0 3 -21 5 -47 5 l-48 -2
39 -6z"/>
<path d="M3848 1801 l43 -6 -41 -49 c-22 -26 -40 -50 -40 -52 0 -2 24 -3 53
-2 50 1 51 2 9 5 l-43 4 41 48 c22 27 40 52 40 55 0 3 -24 5 -52 4 l-53 -1 43
-6z"/>
<path d="M3996 1788 c-9 -12 -16 -29 -16 -38 0 -9 7 -26 16 -38 31 -45 104
-17 104 40 0 53 -74 79 -104 36z m80 -13 c15 -23 15 -27 0 -50 -9 -14 -23 -25
-31 -25 -21 0 -45 29 -45 54 0 48 49 62 76 21z"/>
<path d="M2334 1418 c17 -149 54 -277 93 -320 21 -23 65 -23 92 0 12 9 35 51
52 92 29 71 89 262 89 282 0 5 -16 8 -36 6 l-35 -3 -48 -145 c-59 -182 -71
-189 -94 -53 -9 54 -19 122 -23 151 l-6 52 -45 0 -46 0 7 -62z"/>
<path d="M3802 1138 c-27 -409 -28 -475 -6 -506 19 -27 40 -28 54 -3 5 11 10
82 10 159 0 77 11 256 25 398 14 142 25 266 25 276 0 15 -8 18 -43 18 l-43 0
-22 -342z"/>
</g>
</svg>
